<svg width="129" height="68" viewBox="0 0 129 68" fill="none" xmlns="http://www.w3.org/2000/svg">
	<path fill-rule="evenodd" clip-rule="evenodd"
	      d="M25.0549 39.2943H18.1296C14.3054 39.2943 11.2044 36.2773 11.2044 32.5566C11.2044 28.8359 14.3054 25.8188 18.1296 25.8188C21.9539 25.8188 25.0549 28.8348 25.0549 32.5566V39.2943ZM25.1064 48.2244H35.5093V32.5566C35.5093 23.9042 28.2997 16.8898 19.4055 16.8898H16.8538C7.95959 16.8898 0.75 23.9042 0.75 32.5566C0.75 41.209 7.49068 47.7327 15.9729 48.1806L25.1064 39.2943V48.2244ZM41.4452 48.2244H53.4286V0.25H41.4452V48.2244ZM59.3656 48.2244H71.3491V0.25H59.3656V48.2244ZM101.59 39.2943H94.6646C90.8404 39.2943 87.7394 36.2773 87.7394 32.5566C87.7394 28.8359 90.8393 25.8188 94.6646 25.8188C98.4899 25.8188 101.59 28.8348 101.59 32.5566V39.2943ZM101.641 48.2244H112.044V32.5566C112.044 23.9042 104.835 16.8898 95.9415 16.8898H93.3899C84.4967 16.8898 77.2861 23.9042 77.2861 32.5566C77.2861 41.209 84.0267 47.7327 92.5089 48.1806L101.642 39.2943L101.641 48.2244ZM128.25 48.2244V25.3908C128.25 21.098 124.673 17.6174 120.26 17.6174H112.363C115.633 18.5904 118.013 21.549 118.013 25.0505V48.2234L128.25 48.2244ZM128.25 6.2468C128.25 9.55874 125.532 12.2436 122.179 12.2436C118.825 12.2436 116.107 9.55874 116.107 6.2468C116.107 2.93486 118.825 0.25 122.179 0.25C125.532 0.25 128.25 2.93486 128.25 6.2468ZM126.79 55.7995H128.25V67.75H126.79V62.1258H120.176V67.75H118.715V55.7995H120.176V60.8841H126.79V55.7995ZM103.784 57.0341H99.8069H99.8057V67.75H98.3454V57.0341H94.3685V55.7995H103.784V57.0341ZM80.7708 66.4906V67.7488H73.7693V55.7983H75.2297V66.4906H80.7708ZM52.8866 58.9956L51.4086 62.6984H55.4717L54.0114 58.9956C53.8223 58.5268 53.6286 57.9519 53.4277 57.2709C53.3013 57.794 53.1217 58.3689 52.8866 58.9956ZM54.0622 55.75L59.002 67.75H57.4908L55.9277 63.9495H50.8934L49.3469 67.75H47.8688L52.8334 55.75H54.0622ZM28.2302 66.5071H33.7713V67.7488H26.7699V55.7983H33.7713V57.033H28.2302V60.8829H33.4358V62.1093H28.2302V66.5071ZM8.82427 55.7995H10.2846V67.75H8.82427V62.1258H2.21032V67.75H0.75V55.7995H2.21032V60.8841H8.82427V55.7995Z"
	      fill="#5471F1"/>
</svg>
