<?xml version="1.0" encoding="UTF-8"?>
<svg id="Layer_1" xmlns="http://www.w3.org/2000/svg" width="256" height="256" viewBox="0 0 256 256">
  <path d="M165.42,10.53h90.58v55.67h-25.13l-3.5-31.33h-87.87l25.92-24.34Z" fill="#e9c46a"/>
  <path d="M138.99,115.04h84.89v24.65h-84.89v-24.65Z" fill="#e9c46a"/>
  <path
    d="M70.46,245.46c-12.83,0-24.47-2.54-34.92-7.63s-18.83-12.78-25.13-23.07c-6.31-10.28-9.78-23.16-10.42-38.65l.32-.96h30.06c.42,15.59,4,27.04,10.73,34.35,6.74,7.32,16.35,10.98,28.87,10.98,8.8,0,16.01-1.88,21.63-5.65,5.62-3.76,9.78-8.96,12.49-15.59,2.71-6.62,4.06-14.24,4.06-22.82V35.19l-30.86-4.14V10.53h88.12v20.2l-25.93,4.46v141.24c0,13.79-2.62,25.88-7.88,36.26-5.25,10.4-12.99,18.45-23.22,24.18s-22.88,8.59-37.94,8.59h0Z"
    fill="#e76f51"/>
</svg>
