<?xml version="1.0" encoding="UTF-8"?><svg id="Layer_1" xmlns="http://www.w3.org/2000/svg" viewBox="0 0 512 512"><defs><style>.cls-1{fill:#e76f51;}.cls-2{fill:#e9c46a;}</style></defs><path class="cls-2" d="M216.32,352.87V21.07h295.68v111.34h-50.26l-7-62.67h-175.74V230.07h168.75v49.31h-168.75v73.49h-62.67Z"/><path class="cls-1" d="M140.93,490.93c-25.66,0-48.94-5.09-69.83-15.27-20.89-10.18-37.65-25.56-50.26-46.13C8.22,408.97,1.27,383.2,0,352.23l.64-1.91H60.76c.84,31.18,8,54.08,21.47,68.71,13.47,14.63,32.71,21.95,57.74,21.95,17.6,0,32.02-3.76,43.26-11.29,11.24-7.52,19.56-17.92,24.97-31.18,5.41-13.25,8.11-28.47,8.11-45.65V70.38l-61.72-8.27V21.07h176.24V61.47l-51.85,8.91V352.87c0,27.57-5.25,51.75-15.75,72.53-10.5,20.79-25.98,36.9-46.45,48.35-20.47,11.45-45.76,17.18-75.87,17.18Z"/></svg>